<?xml version="1.0" encoding="utf-8"?>
<!-- Generator: Adobe Illustrator 25.0.1, SVG Export Plug-In . SVG Version: 6.00 Build 0)  -->
<svg version="1.1" id="Layer_2" xmlns="http://www.w3.org/2000/svg" xmlns:xlink="http://www.w3.org/1999/xlink" x="0px" y="0px"
	 viewBox="0 0 612 614.7" style="enable-background:new 0 0 612 614.7;" xml:space="preserve">
<style type="text/css">
	.st0{fill:#FFFFFF;}
	.st1{fill:#1B3668;}
</style>
<rect class="st0" width="613" height="637.7"/>
<path class="st1" d="M420.5,69.5c6.5-15.6,23.4-18.2,23.4-18.2c-13-0.4-54.6,6.2-58.4,47.4c-1.3,13.6,3.8,25,9.4,34.4
	c-7-5.3-15.4-14.4-16.7-26.6c-1-9.9,4.2-25.2,4.2-25.2c-10,11.8-20.6,26.6-18.3,46.5c2.2,18.6,14.6,31.2,23,41.7
	c-6.1-3-10-6.1-15.7-12c1.8,22.4,8.8,39.5,24.5,48c-20-1.9-24-16-29.7-31.8c-4-11-10.6-17.2-16.7-24c9.4,1.9,14.7,7.9,19.3,14.6
	c-3-19.3-16.9-27.7-36.5-30.3c8.3-7.5,22.1-0.1,28.5,3.5c0,0-4-7.9-7.7-11.8c-9.6-10.3-30.7-7.9-43.3-3.7c4.6-8,17-14.1,27.7-10.9
	c-6.6-5.7-14.7-9.8-25-10.4c-17.7-1.2-32.5,8.5-41.2,15.1c2.1-11.4,11.4-15.8,19.8-20.9c-29.5-4.9-44.5,13.5-54.3,31.8
	c-0.9-11.3,9-23.9,9-23.9c-36.2,14.9-30.9,55.8-30.9,55.8c-6.7-4-6.5-19.1-4.2-26.1c0,0-7.4,10.4-7.6,25.3
	c-0.2,15,10.3,31.1,10.3,31.1c-10.9-1.5-17.6-23.2-17.6-23.2c-5.9,30.5,20.1,55.1,20.1,55.1c-11.7-1.2-21.8-15.9-21.8-15.9
	c4.2,30.2,30.8,46.4,30.8,46.4c-8.3,1.7-20.5-6.6-20.5-6.6c10.2,23.2,25.3,34.3,25.3,34.3c-9.3,0.5-19.1-10.8-19.1-10.8
	c-0.8,10.8,5.2,25,5.2,25c-9.5-3.3-12.3-16.9-12.3-16.9c-7.8,10.9-6.2,27-6.2,27c-9.2-6.1-8.5-19-8.5-19c-9,4.5-14.1,22.3-14.1,22.3
	c-4.5-9.7,0.2-21,0.2-21c-12.5,3.2-20.4,17.9-20.4,17.9c-0.8-9,5-19.6,5-19.6c-9.8,0.3-18.2,14.2-18.2,14.2c-1.7-9.2,7-19.3,7-19.3
	c-10.8-1.1-20.1,10.4-20.1,10.4c-1.3-10.6,9.1-18.5,9.1-18.5c-11.5-2.7-20,7.4-20,7.4c-1.6-11.2,10.6-19,10.6-19
	c-9.2-4-19.2,4.2-19.2,4.2c-1.1-11.4,11.5-17.8,11.5-17.8c-7.8-5.3-17.9-0.1-17.9-0.1c1.7-9.3,13.3-11.9,13.3-11.9
	c-6.6-7.5-16.5-6.8-16.5-6.8c3.3-8.2,14.1-6.8,14.1-6.8c-5.2-7.4-14.7-9.9-14.7-9.9c5.9-5,14.3-1.5,14.3-1.5
	c-2.4-8.2-12.1-12.9-12.1-12.9c7.6-2.5,14.8,2.5,14.8,2.5c-0.9-7.4-8.8-14.3-8.8-14.3c8.8,0.4,14.9,6.8,14.9,6.8
	c-0.1-6.4-4.4-14.1-4.4-14.1c7.1,2.2,13.5,9.4,13.5,9.4c0.8-6-1-9.6-1-9.6c11.9,4.5,19.3,13.4,25.6,23.5
	c-3.2-18.5-14.9-31.8-33.4-33.4c-32.3-2.8-52.8,33.8-52.8,60.6c0.1,31.3,10.7,52.1,24.6,72.3c16.2,23.5,44.2,41.7,70.5,47.1
	c-8.4,2.7-16.2,9.4-16.2,17.1c13.6,0.9,24.8,7.1,30.6,14.5c0,0,38.9,0,47.9,0c11.6,0,22.2-0.2,25.9-1c8.8-1.9,12.9-21.8,23.5-21.4
	c10.5,0.4,7.4,17.3-1.6,17.7c-2.9,0.2-4.3-1.2-6.8-2.1c9.5,22.7,37.6-3,24.5-18.8c15.3,0.6,14.3,20.4,3.7,22.4
	c16.7,1.6,21.5-15,13.9-27c-7.7-12-22.9-9.7-35.2-4s-23.2,10.3-31.4,11.3c-6.5,0.8-12.9,0.4-17.2-2.1c-12.5-7.4,9.8-19.7,15.1-23
	c19.7-12,40.7-26.3,42.8-54.8c1.5-21.2-6.5-32.3-13-45.4c-5.4-10.7-11.1-21.6-12-35.5c-1.2-19,12.8-33.1,29.7-32.3
	c23.8,1,36,19.9,37.6,43.8c0.6,9.5-1.5,20.7-2.1,30.3c-2.7,39.6,16.4,59.9,37.6,78.3c19.5,16.8,38.5,27.8,62.6,38.1
	c1.7,15.2,11,32.1,29.2,24c9.5,16.3,44.6,13.2,39.7-10.4c-2.3-11-18.6-12.7-17.4-25.3c0.6-6,7.5-9.3,13.8-7.1
	c6.7,2.3,9.9,12.5,9.4,19.8c10.5-17.6-0.2-43.2-21.9-38.1c-11,2.6-21.9,21.9-21.9,21.9c-14-7.6-27.4-15.1-27.4-15.1
	c32.2-1.6,52.5-15.8,64.4-37.6c15.5,3.6,26-7.1,21.9-19.8c0,0,13.6,4.2,15.1,15.3s-13.3,13.6-21.7,8.2c0,0,7.1,17,20.8,13.7
	c13.6-3.3,12.2-17.8,9.2-23.5s-15.3-16.6-12.1-24c3.2-7.3,18-2.4,15.8,16.6c10.8-15.1,1.3-39.1-16.2-39.1c-12.9,0-18.1,11-21.4,22.4
	c0,0-4.2-1.6-8.9-0.5c-2.7-18.3-14.2-30.3-32.9-37.6c-16.7-6.5-32.9-17.8-34.4-36c-0.8-8.6,2-15.5,8.3-18.8
	c16.7-8.5,27.9,9.8,30.8,21.9c-0.2-14.2,5.2-21,11.5-28.2c-5.1-8.5-15-15.8-28.2-14.1c-9.2,1.2-18,6.1-18,6.1
	c4.3-9.8,11.8-27.2,28.4-28c13.5-0.6,20.1,11.2,24,23c2.2-22.1,14-37.4,25-49.1c-12.9,7.6-19.5-8.3-31.8-8.3
	c-17.6,0-26.2,19.5-41.2,21.4c-6.3,0.8-11-3.7-13.6-5.7C417.8,97.1,414,85.1,420.5,69.5z M479.5,92.4c4.4,0.2,8.8,2.8,8.8,6.4
	c-0.1,5.5-5.3,6.8-9.3,6.4c-5.4-0.5-8-3.7-7.9-6.9C471.1,94.5,475,92.1,479.5,92.4z M405.8,272c-4.5,0.8-10.2-1.1-13.6-3.6
	c-10.9-8.4-15.4-30.8-16.2-48c4.6,9.9,12.1,25.5,25.6,21.4c4.6-1.4,10.1-7.6,10.1-7.6C415.9,245.7,419.4,269.4,405.8,272
	 M419.6,126.2c-6.1-2.3-4.4-21.2-4.4-21.2c1.5,8.6,11.6,14.4,20.4,9.4C435.6,114.4,426.6,128.9,419.6,126.2z M479.7,372.6
	c-5.4,8.8-20-1-20-1c4.2-3.2,6.9-8.9,7.8-16C474.9,356.1,485.3,363.2,479.7,372.6z M444.5,359.4c0,0-1.5,8.1-6.2,5.8
	c-4.7-2.3-5.9-9.5-5.9-9.5S437.9,358,444.5,359.4z M493.5,279.3c1.3-4.4,1.3-8.7,1-13.6C502,267.2,501.5,278.7,493.5,279.3"/>
<path class="st1" d="M58.6,502.9c3.7-0.2,11.2-1.1,13.6-2.1c4.5-1.7,5.8-5,5.8-9.2v-95.5c0-4.1-1.3-7.7-5.8-9.5
	c-4.3-2.1-9.5-2.8-12.9-3.2v-4.1h61.7c26.2,0,70.3,13.5,70.3,64.7c0,43.6-37.2,63-74,63H58.6L58.6,502.9L58.6,502.9z M163,443.8
	c0-34-17.8-58.9-45.8-58.9c-3.9,0-10.5,0.2-14.2,0.4V488c0.6,8.8,5.8,13.5,17.9,13.5C150.3,501.4,163,477.5,163,443.8z"/>
<path class="st1" d="M196.8,503.3c3.2-0.2,5.4-0.6,8-1.5c3.6-1.1,4.9-4.1,4.9-8.2v-54.4c-0.2-3.9-2.1-7.9-4.9-9.9
	c-2.2-1.5-6-2.8-9.3-3v-3.6l34.4-2.2l1.3,1.3v12.7h0.4c7.9-10.1,16.5-14.8,24.9-14.8c7.3,0,13.6,5.8,13.6,13.8
	c0,7.5-4.5,13.6-11.8,13.6c-6.9,0-11.8-3.4-11.8-10.3c0-2.6,1.5-4.9,1.7-7.3c-8.8,0-15,7.3-17,10.7v52.4c0,4.1,1.9,7.1,5,8.4
	s9.2,2.1,12.3,2.2v3.7h-51.8L196.8,503.3L196.8,503.3z"/>
<path class="st1" d="M270.9,463.8c0-23.2,14.8-44.5,41.1-44.5c26.9,0,36.6,17.2,36.6,36.5v2.1H294v2.1c0,23.2,7.5,40,26.7,40
	c13.1,0,19.3-4.7,26.2-16.8l3.6,2.4c-6.7,13.6-19.8,23.9-36.8,23.9C284.3,509.5,270.9,488.9,270.9,463.8z M325.6,452.8
	c0-13.8-1.7-29-14.4-29c-10.3,0-16.6,11.2-17.2,29.4L325.6,452.8z"/>
<path class="st1" d="M413.5,434.9c0.9-1.3,1.7-3,1.7-4.1c0-2.6-7.9-4.7-10.3-5.2v-3.7h32.7v3.6c-9.2,2.6-14.8,7.1-18.1,11
	c-2.4,2.8-10.3,12.7-17.2,21.3c7.3,10.7,20.2,31.4,23.6,36.1c3.9,5.4,6.4,8,14.2,9.3v3.9h-45.4v-3.9c4.5-0.4,9.9-1.7,9.9-3.7
	c0-0.9-1.1-3.2-2.2-5c-5.4-9.2-9.7-15.3-14.4-22.6c-5,6-13.1,16.6-17,22.3c-0.9,1.3-1.5,3-1.5,4.1c0,2.6,8.6,4.7,11,5.2v3.7h-32.7
	v-3.6c9.2-2.6,13.8-7.1,17.2-11c2.6-3,12.7-15.7,20.2-24.9c-4.5-6.5-15.3-23-22.3-33.5c-4.9-7.3-9.5-8.4-13.6-8.4v-3.9H393v3.9
	c-3.7,0-8.8,1.1-8.8,2.6c0,1.1,0.7,2.4,1.7,4.1c1.3,2.4,7.3,12,13.6,21.3C404.2,447.9,410,439.9,413.5,434.9z"/>
<path class="st1" d="M436.5,463.8c0-23.2,14.8-44.5,41.1-44.5c26.9,0,36.6,17.2,36.6,36.5v2.1h-54.6v2.1c0,23.2,7.5,40,26.7,40
	c13.1,0,19.3-4.7,26.2-16.8l3.6,2.4c-6.7,13.6-19.8,23.9-36.8,23.9C450,509.5,436.5,488.9,436.5,463.8z M491.3,452.8
	c0-13.8-1.7-29-14.4-29c-10.3,0-16.6,11.2-17.2,29.4L491.3,452.8z"/>
<path class="st1" d="M514.3,503.3c3.2-0.2,5.6-0.6,8-1.5c3.6-1.1,5-4.1,5-8.2V387.7c-0.2-4.5-2.1-8.8-5-10.8
	c-2.2-1.5-9.7-3.4-13.1-3.6v-3.7l38.1-2.1l1.3,1.3v123.6c0,4.1,1.7,7.1,5,8.6c2.8,1.1,4.9,1.9,8.2,2.2v3.7h-47.7L514.3,503.3
	L514.3,503.3z"/>
<path class="st1" d="M76.5,558.4v-23.7c0-1.3-0.5-2.3-1.9-3c-1.1-0.5-3.3-0.9-4.2-1v-1.3h20.3v1.3c-1.1,0.1-3.3,0.4-4.3,0.8
	c-1.5,0.5-1.9,1.6-1.9,3v23.3c0,6.2,2.2,11.1,10.3,11.1c8.2,0,11.2-5.6,11.2-11.2v-16.8c0-4.7-0.7-7.2-2.1-8.2
	c-1.3-0.9-4.6-1.7-5.9-1.9v-1.3H116v1.3c-1,0.1-4.2,0.6-5.6,1.5c-1.5,1-1.9,3.8-1.9,8.2v17.5c0,9.8-8.3,13.7-15.4,13.7
	C82.2,571.6,76.5,565.8,76.5,558.4z"/>
<path class="st1" d="M135.9,537.7v21.3c0,4.6,0.7,7.2,2.1,8.3c1,0.8,4.8,1.8,5.9,1.9v1.3h-17.8v-1.3c1-0.1,4.5-0.9,5.6-1.6
	c1.4-1,1.9-3.6,1.9-8.3v-21.1c0-1.8-0.6-3.6-1.9-4.8c-1.4-1.2-4.2-2.4-6.1-2.7v-1.4h13.6l23.6,30v-18.6c0-4.5-0.7-7.2-2.1-8.2
	c-1.1-0.8-4.7-1.7-5.9-1.9v-1.3h17.8v1.3c-1,0.1-4.4,0.7-5.6,1.6c-1.5,1-1.9,3.9-1.9,8.2v30.5H162L135.9,537.7z"/>
<path class="st1" d="M185,569.3c1.1-0.1,3.6-0.4,4.4-0.7c1.5-0.5,1.9-1.6,1.9-2.9v-31c0-1.3-0.4-2.3-1.9-2.9c-1.1-0.4-3.2-1-4.4-1.1
	v-1.3h20.5v1.3c-1.1,0.1-3.3,0.5-4.4,0.8c-1.5,0.5-1.8,1.6-1.8,2.9v31c0,1.3,0.5,2.3,1.8,2.9c0.7,0.3,3.3,0.8,4.4,1v1.3H185V569.3z"
	/>
<path class="st1" d="M222.1,535.1c-0.5-1.5-1.1-2.4-2.7-3.3c-1.1-0.6-2.7-1.1-4-1.1v-1.3h20.4v1.3c-3.3,0.4-5.7,1-5.7,2.2
	c0,0.4,0.1,1,0.3,1.5c0.7,2,5.9,16.8,9.5,27.1c2.7-6.4,6.5-15.8,7.7-18.8c1.6-4.2,2.8-6.9,2.8-8.9c0-1.8-3.9-2.8-6.9-3v-1.4h16.3
	v1.4c-1.1,0.1-2.8,0.5-3.9,1.1c-1.7,1.1-2.5,2.8-3.4,4.8c-1.9,4.4-10.7,25.8-14.4,34.4H235C230.7,559.2,223.6,539.3,222.1,535.1z"/>
<path class="st1" d="M269,569.3c1.1-0.1,3.9-0.4,4.7-0.8c1.5-0.5,1.9-1.6,1.9-3v-30.7c0-1.3-0.4-2.4-1.9-3c-1.1-0.5-3.6-1-4.7-1.1
	v-1.3h34.3v10h-1.6c-0.7-2.7-3.9-7.6-6.8-8c-1.5-0.2-3.1-0.2-5-0.2h-6.3v17.2h4.5c3.3,0,4.4-1,5.2-1.8c1-1,1.9-4,2.1-5.6h1.6v17
	h-1.6c-0.2-1.8-1.2-5-2.1-5.9c-0.8-0.9-2-1.8-5.2-1.8h-4.5v13.3c0,4.7,1,5.3,6.8,5.3c3.8,0,7.9,0.1,9.4-1.4c2.1-2.1,4.5-6.9,5.2-8.9
	h1.5l-0.8,12.1H269L269,569.3L269,569.3z"/>
<path class="st1" d="M347.3,561.2c-0.7-5.6-1.9-10.5-8.2-10.5h-3.5v14.7c0,1.3,0.4,2.4,1.8,3c0.8,0.3,3.3,0.7,4.3,0.8v1.3h-20.5
	v-1.3c1.1-0.1,3.7-0.4,4.5-0.7c1.5-0.5,1.9-1.6,1.9-3v-30.9c0-1.3-0.4-2.5-1.9-3c-1.1-0.4-3.4-0.8-4.5-1v-1.3h21.6
	c7.6,0,14.1,2.8,14.1,9.4c0,6.6-6.2,9.4-11.1,10.7v0.5c3,0.4,7.7,1.9,8.9,6.3c0.9,3.3,1.2,5.9,1.9,8.8c0.6,2.3,1.9,2.8,2.9,2.8
	c1.5,0,2.8-1.7,2.8-5.5c0-0.1,0-1.3,0-1.3h1.7l-0.1,1.3c-0.1,5.3-2.2,8.9-8.3,8.9C350.7,571.2,348.2,568.3,347.3,561.2z
	 M338.1,548.9c5.3,0,9.9-2.1,9.9-9.1c0-6.6-3.7-8.8-8.5-8.8h-3.8v17.8H338.1z"/>
<path class="st1" d="M382.4,568.3l-2,2.8h-2.1l-0.4-14.6h1.5c2.4,6.2,6.7,13,13.7,13c5,0,7.6-3.1,7.6-7.5c0-3.6-2.2-6.1-6.2-7.6
	c-3-1.1-5.5-2-8.2-3.1c-4.9-2.1-7.2-5.9-7.2-11.2c0-6.5,5.1-11.7,13-11.7c3.7,0,7.4,1.5,9.5,2.9l1.8-2.6h2.1l0.2,14h-1.4
	c-2.7-7.6-6.3-12.4-12.6-12.4c-3,0-6.2,2.2-6.2,6.4c0,3.6,2,5.7,5.9,7.5c2.8,1.3,5.7,2.1,8,3.1c5,2.2,8.2,4.9,8.2,11.3
	c0,7.4-6,12.7-14.5,12.7C387.6,571.4,384.3,569.7,382.4,568.3z"/>
<path class="st1" d="M423.6,569.3c1.1-0.1,3.6-0.4,4.3-0.7c1.5-0.5,1.9-1.6,1.9-2.9v-31c0-1.3-0.4-2.3-1.9-2.9
	c-1.1-0.4-3.2-1-4.3-1.1v-1.3h20.5v1.3c-1.1,0.1-3.3,0.5-4.4,0.8c-1.5,0.5-1.8,1.6-1.8,2.9v31c0,1.3,0.5,2.3,1.8,2.9
	c0.7,0.3,3.3,0.8,4.4,1v1.3h-20.5V569.3z"/>
<path class="st1" d="M466.4,569.3c1.1-0.1,4.1-0.5,4.9-0.8c1.5-0.5,1.9-1.7,1.9-3v-34.4h-2.1c-1.4,0-3.3,0.1-4.6,0.2
	c-2.6,0.4-5.9,6.2-6.6,8.8h-1.5v-10.8h37.7v10.8h-1.5c-0.7-2.7-4-8.4-6.6-8.8c-1.4-0.2-3.1-0.2-4.6-0.2h-2.1v34.1
	c0,1.3,0.5,2.4,1.9,3c0.7,0.3,3.8,1,4.9,1.1v1.3h-21.6L466.4,569.3L466.4,569.3z"/>
<path class="st1" d="M516.8,569.3c1.1-0.1,4.2-0.4,5-0.7c1.5-0.5,1.9-1.7,1.9-3V556c0-1.9-0.5-3.1-1.7-5.4c-2.2-4.2-6-11.4-8-14.8
	c-1-1.8-2.4-3.3-3.7-4.1c-1.1-0.6-2.7-1-3.9-1v-1.3h21.3v1.3c-2.1,0.1-6,0.7-6,2c0,0.7,4.7,9.8,9.4,17.9c2.7-4.4,9.6-15.9,9.6-17.2
	c0-1.8-3.4-2.5-6.2-2.7v-1.3h15.5v1.3c-1.1,0.1-2.7,0.7-3.5,1.2c-1.6,1-2.5,1.9-3.7,3.6c-1.8,2.5-6.3,10.2-8.9,14.9
	c-1.6,2.8-2,4.6-2,7.4v7.5c0,1.3,0.5,2.4,1.9,3c0.7,0.3,3.8,1,4.9,1v1.3h-21.6L516.8,569.3L516.8,569.3z"/>
</svg>
