<?xml version="1.0" encoding="utf-8"?>
<!-- Generator: Adobe Illustrator 25.0.1, SVG Export Plug-In . SVG Version: 6.00 Build 0)  -->
<svg version="1.1" id="Layer_1" xmlns="http://www.w3.org/2000/svg" xmlns:xlink="http://www.w3.org/1999/xlink" x="0px" y="0px"
	 viewBox="0 0 166.67 187.04" style="enable-background:new 0 0 166.67 187.04;" xml:space="preserve">
<style type="text/css">
	.st0{fill:#FFFFFF;}
	.st1{fill:#F3C300;}
</style>
<rect x="13.96" width="138.76" height="187.04"/>
<g>
	<path class="st0" d="M40.53,149.6v-16.68h6.42v16.52c0,4.75,2.38,7.21,6.3,7.21c3.92,0,6.3-2.38,6.3-7.01v-16.72h6.42v16.47
		c0,8.84-4.96,13.18-12.8,13.18C45.33,162.57,40.53,158.19,40.53,149.6z"/>
	<path class="st0" d="M72.48,147.6v-0.08c0-8.3,6.26-15.1,15.22-15.1c5.51,0,8.8,1.84,11.51,4.5l-4.09,4.71
		c-2.25-2.04-4.55-3.29-7.46-3.29c-4.92,0-8.47,4.09-8.47,9.09v0.09c0,5,3.46,9.18,8.47,9.18c3.34,0,5.38-1.34,7.67-3.42l4.09,4.13
		c-3,3.21-6.34,5.21-11.97,5.21C78.86,162.61,72.48,155.98,72.48,147.6z"/>
	<path class="st0" d="M105.8,132.92h22.23v5.84h-15.81v6.21h13.93v5.84h-13.93v11.3h-6.42V132.92z"/>
</g>
<g>
	<path class="st1" d="M100.81,101.24c0-2.41-0.57-4.77-1.68-7.01c-2.08-4.2-8.74-7.25-15.18-10.2c-3.14-1.44-6.29-2.89-8.78-4.4
		c-11.97-7.26-15.91-16.13-17.12-22.3c-0.33-1.68-0.5-3.4-0.5-5.11c0-5.28,1.56-10.29,4.41-14.09C73.26,23,92.41,24.75,98.01,25.64
		c-5.54,0.24-19.15,2.69-25.68,15.66c-1.28,2.55-1.93,5.16-1.93,7.76c0,10.59,10.8,19.74,19.48,27.08c3,2.54,5.83,4.94,7.96,7.16
		c3.85,4.03,5.8,8.31,5.8,12.75c0,5.18-2.69,9.32-4.3,11.33C100.38,105.46,100.81,103.36,100.81,101.24"/>
	<path class="st1" d="M47.76,95.08c2.62,2.22,8.13,5.87,18.38,8.74c5.24,1.47,10.12,1.59,14.04,1.68c3.53,0.09,6.33,0.16,8.06,1.13
		c1.44,0.8,2.3,2.08,2.3,3.4l-0.1,0.76c-0.5,1.97-3.18,4.09-9.18,4.15C63.32,115.1,52.12,101.58,47.76,95.08"/>
	<path class="st1" d="M80.15,63.99c0,0,7.45-12.5,15.15-14.51c9.34-2.44,14.48,1.56,14.48,1.56l2.57-5.12l3.97,19.57
		c0,0,0.7,1.78-2.57,4c-3.26,2.22-3.5,1.78-3.5,1.78s-2.1-8-6.31-8.89c-4.2-0.89-4.2,4.67-3.97,6.44c0.24,1.78,3.81,9.07,9.81,6
		c6.54-3.33,9.57-7.56,9.57-7.56s0.93-2.22,1.87-1.56c0.93,0.67,4.43,4.45,4.43,4.45l-1.4,23.35c0,0,0,2.89-3.97,4
		c-3.97,1.11-3.97,0.89-3.97,0.89l2.1-7.12h2.57l-0.7-16.45c0,0-2.21,10.74-6.31,17.8c-4.9,8.44-12.85,15.34-12.85,15.34
		s5.02-5.99,4.22-13.29c-0.52-4.84-2.63-10.42-13.09-19.05C86.37,70.74,80.15,63.99,80.15,63.99"/>
	<path class="st1" d="M92.34,109.46c0-0.74-0.16-1.43-0.48-2.04c-1.17-2.24-4.37-3.47-9.49-3.65c-9.33-0.32-31.7-2.65-37.97-17.46
		c-2.01-4.76-3.03-9.93-3.03-15.4c0-6.24,1.33-11.33,2.23-14.08c-0.11,0.75-0.17,2.15-0.17,2.15c0,5.84,1.4,16.8,10.8,24.58
		c5.96,4.94,14.89,8.84,26.54,11.58c7.89,1.86,12.4,4.68,13.39,8.38l0.2,1.57c0,1.83-0.82,3.77-2.32,5.75
		C92.18,110.37,92.34,109.46,92.34,109.46"/>
	<path class="st1" d="M96.48,105.3c0-1.05-0.18-2.2-0.69-3.37c-1.71-4-6.46-6.88-14.14-8.55C61.5,88.99,50.08,80.93,46.75,68.75
		c-0.82-3.01-1.19-5.82-1.19-8.45c0-16.7,14.69-25.68,19.69-28.24c-2.67,2.51-8.37,8.67-9.43,16.49c-0.19,1.41-0.29,2.8-0.29,4.17
		c0,9.93,5.12,18.64,15.56,26.54c3.3,2.5,7.74,4.5,12.03,6.44c6.17,2.79,12,5.43,14.29,9.27c1.14,1.92,1.57,3.79,1.57,5.5
		c0,3.58-1.84,6.51-3.09,8.09C96.2,107.71,96.48,106.59,96.48,105.3"/>
	<path class="st1" d="M95.89,36.78c-3.26,0-6.29-3.02-6.29-6.29c0,3.27-3.03,6.29-6.29,6.29c3.26,0,6.29,3.03,6.29,6.3
		C89.6,39.81,92.63,36.78,95.89,36.78"/>
</g>
</svg>
